<?xml version="1.0" encoding="UTF-8"?>
<svg version="1.1" xmlns="http://www.w3.org/2000/svg" width="390" height="390">
<path d="M0 0 C5.50846589 4.13383968 8.25003671 9.09770898 10.16015625 15.62109375 C10.41628265 18.4314127 10.41628265 18.4314127 10.4251709 21.38026428 C10.43758064 23.06832184 10.43758064 23.06832184 10.45024109 24.79048157 C10.44876823 26.62101326 10.44876823 26.62101326 10.44726562 28.48852539 C10.45775516 30.47915585 10.46824515 32.46978631 10.47875214 34.46041667 C10.48810431 36.59347662 10.49258831 38.72649754 10.49568176 40.85957527 C10.50242392 45.32055282 10.52421507 49.78138086 10.54821777 54.24229431 C10.59712067 63.72269227 10.6294368 73.20312211 10.66015625 82.68359375 C10.69331101 92.89661742 10.72949582 103.10958234 10.78428698 113.32251638 C10.80745387 117.74456219 10.82133104 122.16650468 10.82778168 126.58860505 C10.83232583 128.68618855 10.84136779 130.78369706 10.8523407 132.8812561 C10.86560259 135.42181166 10.8721396 137.96241666 10.87007141 140.50300598 C10.70949252 155.80695223 10.70949252 155.80695223 16.16015625 169.62109375 C19.68740578 172.22453983 22.43711594 172.85640628 26.72265625 172.62109375 C31.25751165 171.90466281 33.38694083 170.37309108 36.16015625 166.62109375 C40.54707285 158.16061173 40.31924027 149.75073419 40.40625 140.44140625 C40.4391837 138.04426712 40.47239543 135.64713179 40.50585938 133.25 C40.55323698 129.4956315 40.59770659 125.74127896 40.63696289 121.98681641 C40.67684802 118.3465225 40.72834258 114.70653101 40.78125 111.06640625 C40.78966415 109.95363312 40.79807831 108.84085999 40.80674744 107.69436646 C40.93675738 99.43029734 41.14033122 90.92829299 46.4921875 84.1953125 C51.18644219 79.76490351 56.85453314 77.35584906 63.28515625 77.05859375 C70.11938425 77.46564808 74.96987017 80.00810819 79.53515625 85.05859375 C83.36978939 89.67514929 84.40832272 93.99044815 84.43139648 99.93676758 C84.44667641 101.81946098 84.44667641 101.81946098 84.46226501 103.7401886 C84.46320601 104.40598749 84.464147 105.07178638 84.4651165 105.757761 C84.46880007 107.85665457 84.4855814 109.95508394 84.50587463 112.05387878 C84.56108797 118.01865975 84.59189521 123.98350869 84.61645508 129.94848633 C84.63241238 133.60486463 84.66271654 137.26091337 84.70121956 140.91711998 C84.71279876 142.30322433 84.71879929 143.68938783 84.71890068 145.07554054 C84.719645 152.5443542 84.76701458 158.87221029 88.16015625 165.62109375 C91.01853317 168.17045695 92.40192702 168.62109375 96.22265625 168.62109375 C100.08959929 167.30468761 100.9852114 166.09398956 103.16015625 162.62109375 C104.32774432 158.24647467 104.86889477 153.75961192 105.49414062 149.28125 C106.41755767 143.54548774 107.3198418 140.31760932 112.16015625 136.62109375 C115.61165857 134.89534259 119.37906245 135.26005181 123.16015625 135.62109375 C128.153628 137.72944849 131.16912648 141.2601983 133.25627136 146.23233032 C134.37290517 150.41871276 134.44789248 154.21712714 134.43481445 158.52880859 C134.43992538 159.40440933 134.44503632 160.28001007 134.45030212 161.18214417 C134.46415801 164.06551015 134.46324426 166.94863601 134.4609375 169.83203125 C134.46482682 171.84453418 134.46916197 173.8570363 134.47392273 175.86953735 C134.48137648 180.08427595 134.48109991 184.29893076 134.47583008 188.51367188 C134.47003867 193.9026268 134.48696273 199.29123766 134.51017475 204.68013573 C134.5249398 208.8358255 134.52577998 212.99143296 134.52266502 217.14714432 C134.52317691 219.1333751 134.52838963 221.11961065 134.53847694 223.10581589 C134.55087682 225.88896486 134.54402826 228.67145069 134.5324707 231.45458984 C134.54011444 232.26731857 134.54775818 233.0800473 134.55563354 233.91740417 C134.49326463 240.74633038 133.27995972 246.35339702 128.47265625 251.49609375 C123.47002554 254.70532855 118.98098655 255.94997393 113.03515625 255.49609375 C108.65183799 254.50631221 106.48697457 253.65219488 103.16015625 250.62109375 C101.20185149 247.41392997 99.69057189 244.04863805 98.16015625 240.62109375 C97.29614215 238.80333115 96.42145923 236.99059355 95.53515625 235.18359375 C95.15101563 234.38050781 94.766875 233.57742187 94.37109375 232.75 C93.12804764 230.56464474 92.17223708 229.13015438 90.16015625 227.62109375 C85.59237929 226.76173232 81.42857321 227.02736666 77.22265625 228.99609375 C70.73087611 237.25835938 71.68094221 248.51259505 71.59765625 258.49609375 C71.29275072 286.78763134 71.29275072 286.78763134 65.16015625 293.62109375 C61.19952624 297.22166649 56.94519966 297.12440257 51.8203125 296.97265625 C48.04401036 296.47358548 45.93825494 295.19083504 43.16015625 292.62109375 C40.06556848 288.35269682 39.05461011 284.56890239 38.98657227 279.36254883 C38.97308243 278.53100784 38.95959259 277.69946686 38.94569397 276.84272766 C38.93003639 275.50518684 38.93003639 275.50518684 38.9140625 274.140625 C38.88110934 272.2350217 38.84789795 270.32942286 38.81445312 268.42382812 C38.76719304 265.43321945 38.72277533 262.44262688 38.68334961 259.4519043 C38.64332905 256.55628537 38.5918468 253.66103562 38.5390625 250.765625 C38.53064835 249.88405228 38.52223419 249.00247955 38.51356506 248.0941925 C38.37986956 241.28729126 38.09931219 233.88714693 34.09765625 228.12109375 C30.20467332 224.80791679 27.19588623 224.26521177 22.16015625 224.62109375 C18.72274872 225.59394494 16.92805965 226.45939374 14.94140625 229.46484375 C12.27337818 234.57221177 11.03688939 238.99743615 11.02885437 244.77357483 C11.02484619 245.81494598 11.02083801 246.85631714 11.01670837 247.929245 C11.01750145 249.63501457 11.01750145 249.63501457 11.01831055 251.37524414 C11.01483612 252.57735535 11.01136169 253.77946655 11.00778198 255.01800537 C11.00042615 257.63111501 10.9947522 260.24417382 10.99149132 262.85728645 C10.98556403 266.99827844 10.96900528 271.13918523 10.95014954 275.28013611 C10.94381221 276.70030684 10.93748659 278.12047763 10.93117237 279.54064846 C10.92800656 280.25188047 10.92484075 280.96311249 10.921579 281.69589698 C10.87958952 291.33232424 10.84655976 300.96871199 10.83422852 310.60522461 C10.8258192 317.11014943 10.80322107 323.61486308 10.76487285 330.11968225 C10.74520427 333.55681782 10.73267656 336.99363842 10.73770714 340.43083382 C10.74006922 344.27460303 10.71782146 348.11752696 10.69018555 351.96118164 C10.70008766 353.64569679 10.70008766 353.64569679 10.71018982 355.36424255 C10.61006966 363.88537359 8.80573818 371.11380601 4.47265625 378.49609375 C-0.80444648 383.34532329 -6.88947676 386.31126105 -14.02734375 386.87109375 C-21.21731245 386.39962039 -27.02065407 384.3124976 -32.3359375 379.3671875 C-37.30414533 373.59890465 -38.96139713 367.16602657 -38.97406483 359.70637321 C-38.98075159 357.88011982 -38.98075159 357.88011982 -38.98757344 356.01697242 C-38.98748415 354.66397404 -38.9872943 353.31097565 -38.98701477 351.95797729 C-38.99031444 350.52209566 -38.99404023 349.08621496 -38.99815625 347.65033543 C-39.00817264 343.6995283 -39.01189246 339.74873635 -39.01454556 335.79791832 C-39.01844968 331.53871897 -39.02802794 327.27953164 -39.03675842 323.02033997 C-39.05651969 312.7319206 -39.06658857 302.44350026 -39.07548621 292.15506667 C-39.07986962 287.30986033 -39.08523629 282.46465509 -39.09047508 277.61944962 C-39.10748694 261.51258254 -39.12198113 245.40571615 -39.12922382 229.29884148 C-39.13113371 225.11914952 -39.13305405 220.93945756 -39.13500977 216.75976562 C-39.13549351 215.72092618 -39.13597725 214.68208674 -39.13647565 213.61176731 C-39.144776 196.78314159 -39.17011322 179.95458696 -39.20259044 163.12599228 C-39.23566321 145.84792633 -39.25367278 128.56989649 -39.25686806 111.29179871 C-39.25903294 101.59099109 -39.26777844 91.89028712 -39.29332924 82.18951035 C-39.31503918 73.92790491 -39.32308519 65.66642832 -39.31336246 57.4047976 C-39.30881863 53.19087573 -39.31070872 48.97721967 -39.3301239 44.76333427 C-39.3477626 40.90160323 -39.3467524 37.04033177 -39.33122661 33.1785958 C-39.32885159 31.78553971 -39.33316866 30.39245175 -39.34505526 28.99944435 C-39.42580065 18.90734027 -38.5258835 10.38597238 -31.52734375 2.68359375 C-22.57079858 -5.31130131 -10.40904147 -5.97462055 0 0 Z " fill="#FD6419" transform="translate(255.83984375,3.37890625)"/>
<path d="M0 0 C6.99871705 3.6786645 10.98569355 8.48442889 13.42578125 16.0546875 C13.69897435 18.88415827 13.83227877 21.48584303 13.80673218 24.30805969 C13.81141215 25.11144482 13.81609212 25.91482995 13.82091391 26.74256009 C13.83282827 29.42009676 13.82342062 32.09711822 13.81396484 34.7746582 C13.81803222 36.70033058 13.82337504 38.62600062 13.82989502 40.55166626 C13.84355733 45.77288939 13.83827367 50.99393442 13.82875776 56.21516061 C13.82115231 61.68642923 13.82820955 67.15768279 13.83291626 72.62895203 C13.83837261 81.81963837 13.83118679 91.01025238 13.81689453 100.20092773 C13.80058285 110.81243744 13.80584628 121.42377409 13.82237375 132.03527957 C13.83600944 141.15653564 13.83789765 150.27773975 13.83005774 159.39900273 C13.82539081 164.8419463 13.82472911 170.28480867 13.83466721 175.72774696 C13.84336436 180.84877321 13.83726478 185.96957758 13.81998444 191.09057999 C13.81603363 192.96501104 13.81712941 194.83946091 13.82377243 196.71388435 C13.89975365 220.34041842 13.89975365 220.34041842 5.1953125 229.4296875 C-0.06191901 234.25752041 -5.24462118 235.42744536 -12.19921875 235.3359375 C-18.51973034 234.58745586 -23.66423905 230.94216213 -27.57421875 226.0546875 C-28.69806594 223.87383905 -29.66567843 221.67167185 -30.59765625 219.40234375 C-31.82768499 216.44535467 -33.27341591 213.6251663 -34.7421875 210.78125 C-35.57421875 209.0546875 -35.57421875 209.0546875 -36.57421875 206.0546875 C-38.86956133 204.91923188 -38.86956133 204.91923188 -41.57421875 204.0546875 C-42.32751465 203.70792969 -43.08081055 203.36117187 -43.85693359 203.00390625 C-47.01816838 201.89960429 -49.45769715 201.85765337 -52.80078125 201.9296875 C-53.99832031 201.94515625 -55.19585937 201.960625 -56.4296875 201.9765625 C-58.91928094 202.02816029 -61.40886457 202.0802344 -63.8984375 202.1328125 C-84.01840608 202.3910367 -84.01840608 202.3910367 -91.921875 195.68359375 C-100.23998823 187.48346794 -99.88665157 176.75257673 -100.05273438 165.78320312 C-100.26740227 158.62586134 -101.13863021 152.72789443 -106.13671875 147.2421875 C-114.94543297 140.88041214 -126.09753415 141.60627769 -136.44921875 141.5546875 C-161.60035357 141.42874017 -161.60035357 141.42874017 -167.83544922 136.13476562 C-171.49790049 131.75340016 -171.03542837 126.48213643 -170.57421875 121.0546875 C-169.67201939 117.47905916 -168.32425554 114.78052955 -165.63671875 112.1796875 C-162.28147721 110.34955575 -159.10007464 109.93131462 -155.31567383 109.80517578 C-154.06836235 109.75975143 -154.06836235 109.75975143 -152.79585266 109.71340942 C-151.90415878 109.68423431 -151.0124649 109.6550592 -150.09375 109.625 C-148.18813042 109.55131258 -146.282532 109.47707626 -144.37695312 109.40234375 C-141.38646133 109.2892178 -138.39600955 109.17999636 -135.4050293 109.08056641 C-132.50902034 108.98229912 -129.61404152 108.8673249 -126.71875 108.75 C-125.83717728 108.72487335 -124.95560455 108.6997467 -124.0473175 108.67385864 C-118.10302188 108.41717885 -113.11749378 107.17723202 -107.57421875 105.0546875 C-106.08921875 104.5596875 -106.08921875 104.5596875 -104.57421875 104.0546875 C-103.43212058 102.27239814 -103.43212058 102.27239814 -102.57421875 100.0546875 C-102.22359375 99.3121875 -101.87296875 98.5696875 -101.51171875 97.8046875 C-99.6159039 92.2436306 -99.55148586 86.92309021 -99.69921875 81.1171875 C-99.72980678 75.06075791 -99.29157977 69.24055904 -95.21484375 64.4609375 C-90.20520175 60.01939923 -85.46640113 58.56075306 -78.9140625 58.74609375 C-73.43828231 59.46827511 -69.1676895 61.88973684 -65.69921875 66.1796875 C-60.14633611 75.4248348 -61.29215497 86.9527117 -61.29982376 97.34990311 C-61.30079778 100.26826708 -61.28774605 103.18627155 -61.27084351 106.10458374 C-61.22482093 114.39489039 -61.19995735 122.68515566 -61.19335938 130.97558594 C-61.18833537 136.06417992 -61.16405041 141.1523918 -61.12803268 146.24085617 C-61.11826527 148.17123492 -61.11588596 150.1016664 -61.12120438 152.03206253 C-61.12830301 154.73354078 -61.11093883 157.43388294 -61.08837891 160.13525391 C-61.10063759 161.31686852 -61.10063759 161.31686852 -61.11314392 162.52235413 C-61.03132096 168.05570209 -59.75577246 172.46689536 -56.57421875 177.0546875 C-52.28228511 180.1067292 -48.76997187 180.68176115 -43.57421875 180.0546875 C-39.03820886 178.6249508 -35.65812362 176.79980923 -33.13671875 172.6796875 C-30.84262598 167.35739227 -30.44942528 162.48369145 -30.449646 156.7303772 C-30.44708298 155.47998154 -30.44451996 154.22958588 -30.44187927 152.94129944 C-30.44394884 151.56845085 -30.44607159 150.19560234 -30.44824219 148.82275391 C-30.44684615 147.36688686 -30.444946 145.91102022 -30.44258118 144.45515442 C-30.43809583 141.32697855 -30.43622835 138.19881575 -30.43611908 135.07063675 C-30.43497544 130.11959786 -30.42211349 125.16863298 -30.40655518 120.21762085 C-30.40398232 119.38078093 -30.40140947 118.54394101 -30.39875865 117.68174231 C-30.39349249 115.97095102 -30.38820701 114.26015979 -30.38290262 112.54936862 C-30.34783613 101.02899436 -30.32124174 89.50871339 -30.32373047 77.98828125 C-30.32532073 70.20850371 -30.30924757 62.42897997 -30.27302384 54.64928377 C-30.2545955 50.53650168 -30.24519379 46.42414325 -30.25749969 42.31132889 C-30.26896651 38.44180094 -30.25716352 34.5730311 -30.22786522 30.70360374 C-30.22124545 29.28792247 -30.2230558 27.87217135 -30.23416328 26.45651817 C-30.29979664 17.33073756 -29.5957277 11.18274103 -23.09626389 4.54537392 C-16.60546488 -1.27862947 -8.25653939 -3.0319917 0 0 Z " fill="#FC6318" transform="translate(170.57421875,81.9453125)"/>
<path d="M0 0 C-3 1 -3 1 -5.19921875 0.1015625 C-8.71547704 -1.28140101 -12.08363927 -1.45372219 -15.8125 -1.625 C-16.50537109 -1.66367187 -17.19824219 -1.70234375 -17.91210938 -1.7421875 C-19.60767015 -1.83573568 -21.30379712 -1.91892364 -23 -2 C-23 -1.34 -23 -0.68 -23 0 C-24.86328125 1.33203125 -24.86328125 1.33203125 -27.3125 2.8125 C-31.57596711 5.56333985 -34.01040358 7.83697278 -35.55515867 12.77444255 C-36.11029982 15.55183402 -36.12135005 18.15019396 -36.1174612 20.98391914 C-36.11821886 22.21680518 -36.11897651 23.44969122 -36.11975712 24.71993744 C-36.11552219 26.09023892 -36.11119872 27.46054012 -36.10679626 28.83084106 C-36.10580042 30.2847974 -36.10525058 31.73875409 -36.10510927 33.19271076 C-36.10346121 37.19318035 -36.09558648 41.1936175 -36.08674753 45.19407678 C-36.07832874 49.50628339 -36.07572029 53.81849372 -36.07249451 58.13070679 C-36.06619204 65.60406195 -36.05644925 73.07740623 -36.04459953 80.55075455 C-36.02764271 91.35819073 -36.01807594 102.16562419 -36.0107208 112.97307073 C-35.99877062 130.50955689 -35.98381862 148.04603879 -35.96557617 165.58251953 C-35.96448605 166.6324293 -35.96339593 167.68233908 -35.96227277 168.7640643 C-35.94665178 183.67432638 -35.92805717 198.5845833 -35.9082749 213.49484037 C-35.90688158 214.54535652 -35.90548827 215.59587268 -35.90405273 216.67822266 C-35.9026592 217.7274634 -35.90126567 218.77670414 -35.89982992 219.85774006 C-35.87682399 237.33012494 -35.86149023 254.80250646 -35.85249335 272.27490413 C-35.84662893 283.06034949 -35.8342236 293.84574895 -35.81352056 304.63117622 C-35.79984918 312.01505752 -35.79332158 319.3989227 -35.79251044 326.78281654 C-35.79180396 331.04833204 -35.78775004 335.31377898 -35.7750473 339.57927704 C-35.76349517 343.47871132 -35.76102474 347.37803847 -35.76598949 351.27748571 C-35.76614165 352.69327791 -35.76285593 354.1090752 -35.75591242 355.52485038 C-35.74700401 357.43913392 -35.75145002 359.35346606 -35.75669765 361.26776314 C-35.75539614 362.33412786 -35.75409463 363.40049258 -35.75275367 364.49917138 C-36 367 -36 367 -38 369 C-39.0124879 365.64228679 -39.12827908 362.58435448 -39.13422108 359.08527946 C-39.14090784 357.25902607 -39.14090784 357.25902607 -39.14772969 355.39587867 C-39.1476404 354.04288029 -39.14745055 352.6898819 -39.14717102 351.33688354 C-39.15047069 349.90100191 -39.15419648 348.46512121 -39.1583125 347.02924168 C-39.16832889 343.07843455 -39.17204871 339.1276426 -39.17470181 335.17682457 C-39.17860593 330.91762522 -39.18818419 326.65843789 -39.19691467 322.39924622 C-39.21667594 312.11082685 -39.22674482 301.82240651 -39.23564246 291.53397292 C-39.24002587 286.68876658 -39.24539254 281.84356134 -39.25063133 276.99835587 C-39.26764319 260.89148879 -39.28213738 244.7846224 -39.28938007 228.67774773 C-39.29128996 224.49805577 -39.2932103 220.31836381 -39.29516602 216.13867188 C-39.29564976 215.09983243 -39.2961335 214.06099299 -39.2966319 212.99067356 C-39.30493225 196.16204784 -39.33026947 179.33349321 -39.36274669 162.50489853 C-39.39581946 145.22683258 -39.41382903 127.94880274 -39.41702431 110.67070496 C-39.41918919 100.96989734 -39.42793469 91.26919337 -39.45348549 81.5684166 C-39.47519543 73.30681116 -39.48324144 65.04533457 -39.47351871 56.78370385 C-39.46897488 52.56978198 -39.47086497 48.35612592 -39.49028015 44.14224052 C-39.50791885 40.28050948 -39.50690865 36.41923802 -39.49138286 32.55750205 C-39.48900784 31.16444596 -39.49332491 29.771358 -39.50521151 28.3783506 C-39.5859569 18.28624652 -38.68603975 9.76487863 -31.6875 2.0625 C-22.48148195 -6.15508243 -10.35365261 -6.49640948 0 0 Z " fill="#E3480C" transform="translate(256,4)"/>
<path d="M0 0 C5.34367021 3.26557624 7.47135924 7.06805291 9 13 C9.38991658 16.51525947 9.39432907 19.99327625 9.37109375 23.52734375 C9.38847318 25.55664234 9.40605759 27.58593918 9.42382812 29.61523438 C9.43389131 32.77924819 9.43749695 35.94314858 9.43579102 39.10717773 C9.43937969 42.18506826 9.46678435 45.26210624 9.49609375 48.33984375 C9.48791122 49.27448959 9.4797287 50.20913544 9.47129822 51.17210388 C9.55068729 58.24792844 10.93609194 64.7355908 15.91015625 70.03515625 C20.09200551 71.9658418 24.51697925 71.61192568 29 71 C32.45658479 68.95426614 33.7785359 67.33219615 36 64 C37.10390678 58.46778256 37.13389965 53.0241381 37.140625 47.41015625 C37.15894574 45.55532619 37.17851537 43.70050812 37.19921875 41.84570312 C37.22818417 38.95137014 37.25000079 36.05781756 37.25048828 33.16333008 C37.25383715 30.34908494 37.28845212 27.53659444 37.328125 24.72265625 C37.3210553 23.86720718 37.3139856 23.01175812 37.30670166 22.13038635 C37.4324238 15.86799682 39.22489484 11.9676771 43 7 C43.99 7.495 43.99 7.495 45 8 C44.525625 8.886875 44.05125 9.77375 43.5625 10.6875 C41.09099799 15.92708427 40.84176721 20.77810987 40.75390625 26.50390625 C40.7209329 27.98242702 40.68772192 29.4609425 40.65429688 30.93945312 C40.6072551 33.24060006 40.56285797 35.54173128 40.52319336 37.84301758 C40.04668241 64.26226817 40.04668241 64.26226817 34 71 C30.03936999 74.60057274 25.78504341 74.50330882 20.66015625 74.3515625 C16.88385411 73.85249173 14.77809869 72.56974129 12 70 C8.90541223 65.73160307 7.89445386 61.94780864 7.82641602 56.74145508 C7.81292618 55.90991409 7.79943634 55.07837311 7.78553772 54.22163391 C7.77509933 53.32994003 7.76466095 52.43824615 7.75390625 51.51953125 C7.72095309 49.61392795 7.6877417 47.70832911 7.65429688 45.80273438 C7.60703679 42.8121257 7.56261908 39.82153313 7.52319336 36.83081055 C7.4831728 33.93519162 7.43169055 31.03994187 7.37890625 28.14453125 C7.3704921 27.26295853 7.36207794 26.3813858 7.35340881 25.47309875 C7.21971331 18.66619751 6.93915594 11.26605318 2.9375 5.5 C-0.95548293 2.18682304 -3.96427002 1.64411802 -9 2 C-12.43740753 2.97285119 -14.2320966 3.83829999 -16.21875 6.84375 C-18.89953948 11.97554701 -20.117446 16.42517312 -20.15821838 22.22650146 C-20.1680072 23.28376938 -20.17779602 24.34103729 -20.18788147 25.43034363 C-20.19363693 26.58480484 -20.1993924 27.73926605 -20.20532227 28.92871094 C-20.21522186 30.14849136 -20.22512146 31.36827179 -20.23532104 32.62501526 C-20.2614869 35.9655757 -20.28335796 39.30611252 -20.30332303 42.6467123 C-20.32521168 46.1394398 -20.35258627 49.63212419 -20.37937927 53.12481689 C-20.42926726 59.73682118 -20.47422051 66.34884943 -20.51740164 72.96090055 C-20.56680732 80.48929445 -20.62171308 88.0176451 -20.67708123 95.54599714 C-20.79084148 111.03062477 -20.89769346 126.51529221 -21 142 C-21.66 142 -22.32 142 -23 142 C-23.11698661 125.46636868 -23.20506285 108.93287236 -23.25906086 92.39892673 C-23.28480352 84.72129513 -23.31987803 77.04392123 -23.37719727 69.36645508 C-23.42715366 62.67197313 -23.45931964 55.97767789 -23.47044247 49.28301471 C-23.47694075 45.74065746 -23.49212949 42.19883415 -23.52865028 38.65664864 C-23.56916255 34.69490954 -23.56994158 30.73368491 -23.56762695 26.77172852 C-23.58560333 25.60719147 -23.60357971 24.44265442 -23.62210083 23.24282837 C-23.57191681 15.28893767 -22.0639563 9.24504929 -16.45094776 3.38192081 C-11.12916196 -1.28465935 -6.63742983 -1.62248285 0 0 Z " fill="#ED4A07" transform="translate(287,226)"/>
<path d="M0 0 C3.75255101 2.01267679 5.96064299 3.39213636 8.35546875 6.984375 C5.36596761 6.50605482 3.82459831 5.63400051 1.23046875 3.921875 C-3.2599922 1.28156105 -7.56778365 1.29060724 -12.64453125 1.984375 C-15.21273963 2.75093149 -17.23956175 3.73379086 -19.64453125 4.984375 C-20.40765625 5.273125 -21.17078125 5.561875 -21.95703125 5.859375 C-24.35588954 7.45861386 -24.77136663 9.29771464 -25.64453125 11.984375 C-25.97453125 12.644375 -26.30453125 13.304375 -26.64453125 13.984375 C-26.79977673 16.98251616 -26.89520556 19.96000287 -26.94775391 22.96044922 C-26.96752666 23.89446186 -26.98729942 24.8284745 -27.00767136 25.79079056 C-27.07173906 28.91513316 -27.12800844 32.03955816 -27.18359375 35.1640625 C-27.20437611 36.24696438 -27.22515846 37.32986626 -27.24657059 38.44558334 C-27.57921998 55.79379029 -27.75250834 73.14125958 -27.85546875 90.4921875 C-27.86992539 92.78708934 -27.88443146 95.08199087 -27.89898682 97.37689209 C-27.95663128 106.68027221 -28.01325898 115.98360263 -28.04589844 125.28710938 C-28.06681199 131.10790111 -28.10198648 136.92845528 -28.14665604 142.74911118 C-28.16072706 144.93150955 -28.16951814 147.11394914 -28.17271042 149.29639053 C-28.17761132 152.30739117 -28.20071508 155.31774434 -28.22802734 158.32861328 C-28.22502121 159.20829269 -28.22201508 160.08797211 -28.21891785 160.99430847 C-28.30450398 167.3385992 -29.46863336 171.94562104 -33.23046875 177.19921875 C-37.36746259 181.18265605 -40.41865176 182.48536795 -46.20703125 182.671875 C-51.82558971 182.34635018 -55.25902844 181.51184465 -59.64453125 177.984375 C-64.03039109 172.2827572 -63.79894796 166.05650501 -63.83398438 159.17431641 C-63.84227768 158.2972554 -63.85057098 157.4201944 -63.8591156 156.51655579 C-63.87647736 154.61667277 -63.89165465 152.7167688 -63.90489197 150.81685257 C-63.92598521 147.80683177 -63.95300386 144.79691538 -63.98156738 141.78695679 C-64.04117143 135.39447002 -64.09335626 129.00193407 -64.14453125 122.609375 C-64.20386143 115.20699673 -64.26625257 107.80466994 -64.33641052 100.40238571 C-64.36288438 97.44280416 -64.3837606 94.48321711 -64.40441895 91.52359009 C-64.42103186 89.70013177 -64.43790456 87.87667578 -64.45507812 86.05322266 C-64.46135475 84.82638008 -64.46135475 84.82638008 -64.46775818 83.57475281 C-64.51800415 78.94930372 -64.88489373 74.54880109 -65.64453125 69.984375 C-64.98453125 69.984375 -64.32453125 69.984375 -63.64453125 69.984375 C-61.25723951 79.06746861 -61.36325983 87.9566584 -61.37013626 97.27959061 C-61.37111028 100.19795458 -61.35805855 103.11595905 -61.34115601 106.03427124 C-61.29513343 114.32457789 -61.27026985 122.61484316 -61.26367188 130.90527344 C-61.25864787 135.99386742 -61.23436291 141.0820793 -61.19834518 146.17054367 C-61.18857777 148.10092242 -61.18619846 150.0313539 -61.19151688 151.96175003 C-61.19861551 154.66322828 -61.18125133 157.36357044 -61.15869141 160.06494141 C-61.16686386 160.85268448 -61.17503632 161.64042755 -61.18345642 162.45204163 C-61.10163346 167.98538959 -59.82608496 172.39658286 -56.64453125 176.984375 C-52.35259761 180.0364167 -48.84028437 180.61144865 -43.64453125 179.984375 C-39.10852136 178.5546383 -35.72843612 176.72949673 -33.20703125 172.609375 C-30.91293848 167.28707977 -30.51973778 162.41337895 -30.5199585 156.6600647 C-30.51739548 155.40966904 -30.51483246 154.15927338 -30.51219177 152.87098694 C-30.51426134 151.49813835 -30.51638409 150.12528984 -30.51855469 148.75244141 C-30.51715865 147.29657436 -30.5152585 145.84070772 -30.51289368 144.38484192 C-30.50840833 141.25666605 -30.50654085 138.12850325 -30.50643158 135.00032425 C-30.50528794 130.04928536 -30.49242599 125.09832048 -30.47686768 120.14730835 C-30.47429482 119.31046843 -30.47172197 118.47362851 -30.46907115 117.61142981 C-30.46380499 115.90063852 -30.45851951 114.18984729 -30.45321512 112.47905612 C-30.41814863 100.95868186 -30.39155424 89.43840089 -30.39404297 77.91796875 C-30.39563323 70.13819121 -30.37956007 62.35866747 -30.34333634 54.57897127 C-30.324908 50.46618918 -30.31550629 46.35383075 -30.32781219 42.24101639 C-30.33927901 38.37148844 -30.32747602 34.5027186 -30.29817772 30.63329124 C-30.29155795 29.21760997 -30.2933683 27.80185885 -30.30447578 26.38620567 C-30.37010914 17.26042506 -29.6660402 11.11242853 -23.16657639 4.47506142 C-16.67178873 -1.35252088 -8.23482405 -3.16256167 0 0 Z " fill="#E04006" transform="translate(170.64453125,82.015625)"/>
<path d="M0 0 C2.20620468 1.73834796 2.94080208 2.62166284 3.38196754 5.44117546 C3.38527769 6.41706186 3.38858784 7.39294827 3.39199829 8.39840698 C3.40309128 9.51965469 3.41418427 10.6409024 3.4256134 11.79612732 C3.42260727 13.02726761 3.41960114 14.2584079 3.41650391 15.52685547 C3.42508926 16.82314377 3.43367462 18.11943207 3.44252014 19.45500183 C3.465884 23.01553656 3.47099575 26.57589701 3.47317934 30.13649893 C3.47884389 33.87142345 3.50212724 37.60623494 3.52377319 41.34109497 C3.56234618 48.42993571 3.58652463 55.51874417 3.60489786 62.60766327 C3.63819089 75.26498424 3.69642992 87.92220507 3.75888956 100.57941163 C3.78021769 105.01398136 3.79558195 109.44851891 3.80572915 113.88312793 C3.81110316 115.98807895 3.81858189 118.09301093 3.82688904 120.19795227 C3.83675107 122.74815229 3.84324853 125.29836889 3.84544373 127.84858704 C3.88224814 135.60616154 4.30139578 143.2740552 5 151 C4.34 151 3.68 151 3 151 C0.69397477 143.65231356 0.69379916 136.62483621 0.68115234 128.96484375 C0.6718411 127.55480889 0.66167067 126.14477948 0.65071106 124.73475647 C0.62353168 120.9275119 0.60829767 117.12030408 0.59528303 113.31298828 C0.5795994 109.32645478 0.55282599 105.33999574 0.5272522 101.35351562 C0.48055672 93.81375074 0.44376808 86.2739717 0.41057932 78.73413658 C0.37229252 70.14640205 0.32289964 61.55874248 0.27259517 52.97107124 C0.16941269 35.31410244 0.080108 17.65708782 0 0 Z " fill="#EE4705" transform="translate(263,16)"/>
<path d="M0 0 C0.66 0 1.32 0 2 0 C4.38729174 9.08309361 4.28127142 17.9722834 4.27439499 27.29521561 C4.27342097 30.21357958 4.2864727 33.13158405 4.30337524 36.04989624 C4.34939782 44.34020289 4.3742614 52.63046816 4.38085938 60.92089844 C4.38588338 66.00949242 4.41016834 71.0977043 4.44618607 76.18616867 C4.45595348 78.11654742 4.45833279 80.0469789 4.45301437 81.97737503 C4.44591574 84.67885328 4.46327992 87.37919544 4.48583984 90.08056641 C4.47358116 91.26218102 4.47358116 91.26218102 4.46107483 92.46766663 C4.54289779 98.00101459 5.81844629 102.41220786 9 107 C13.29193364 110.0520417 16.80424688 110.62707365 22 110 C26.77267243 108.49566798 29.97507053 106.64855204 32.5 102.25 C32.995 101.1775 33.49 100.105 34 99 C34.66 99 35.32 99 36 99 C35.84825965 104.00743139 33.09792829 106.27547597 29.69140625 109.546875 C25.70091105 112.97519882 21.32582808 112.32587749 16.27734375 112.28125 C11.67816713 111.886565 9.58656075 110.88484234 6 108 C1.61414016 102.2983822 1.84558329 96.07213001 1.81054688 89.18994141 C1.79810692 87.8743499 1.79810692 87.8743499 1.78541565 86.53218079 C1.76805389 84.63229777 1.7528766 82.7323938 1.73963928 80.83247757 C1.71854604 77.82245677 1.69152739 74.81254038 1.66296387 71.80258179 C1.60335982 65.41009502 1.55117499 59.01755907 1.5 52.625 C1.44066982 45.22262173 1.37827868 37.82029494 1.30812073 30.41801071 C1.28164687 27.45842916 1.26077065 24.49884211 1.2401123 21.53921509 C1.22349939 19.71575677 1.20662669 17.89230078 1.18945312 16.06884766 C1.18526871 15.25095261 1.18108429 14.43305756 1.17677307 13.59037781 C1.1265271 8.96492872 0.75963752 4.56442609 0 0 Z " fill="#F7510F" transform="translate(105,152)"/>
<path d="M0 0 C3.23065165 4.84597748 3.15352091 8.93196738 3.16113281 14.56713867 C3.16858017 15.87988266 3.16858017 15.87988266 3.17617798 17.21914673 C3.19079967 20.11876204 3.19760263 23.0183226 3.203125 25.91796875 C3.2088777 27.93475852 3.21463542 29.95154827 3.22039795 31.96833801 C3.23090882 36.20098119 3.23675051 40.43360537 3.24023438 44.66625977 C3.24571062 50.0788189 3.26971975 55.4911254 3.29820633 60.90360546 C3.31687239 65.07215598 3.32204049 69.24064623 3.32357025 73.409235 C3.32658978 75.40384612 3.33459459 77.39845636 3.34775543 79.39302635 C3.36489421 82.19083966 3.36291627 84.98804353 3.35644531 87.78588867 C3.37026749 89.01205147 3.37026749 89.01205147 3.3843689 90.26298523 C3.33500046 97.10957449 2.1336095 102.71753402 -2.6875 107.875 C-7.69013071 111.0842348 -12.1791697 112.32888018 -18.125 111.875 C-22.50831826 110.88521846 -24.67318168 110.03110113 -28 107 C-29.95830476 103.79283622 -31.46958436 100.4275443 -33 97 C-33.8640141 95.1822374 -34.73869702 93.3694998 -35.625 91.5625 C-36.00914062 90.75941406 -36.39328125 89.95632812 -36.7890625 89.12890625 C-38.03486445 86.93870605 -38.97231797 85.49934235 -41 84 C-43.40915895 83.60008575 -43.40915895 83.60008575 -46 83.75 C-47.299375 83.77320313 -47.299375 83.77320313 -48.625 83.796875 C-51.14823779 83.9192819 -51.14823779 83.9192819 -54 85 C-53.67 84.01 -53.34 83.02 -53 82 C-49.49296652 80.24648326 -45.82697297 80.45507913 -42 81 C-37.70695103 82.83049698 -35.45479578 85.12409701 -33.3125 89.25 C-32.879375 90.4875 -32.44625 91.725 -32 93 C-29.42861821 99.59270573 -27.01584183 104.54587443 -20.75 108.375 C-15.66841774 109.52990506 -10.90995174 108.78889311 -6.125 106.8125 C-3.46126332 104.54048931 -2.35058878 102.19876289 -1 99 C-0.67 99 -0.34 99 0 99 C0.82851862 93.95302168 1.14388358 89.06188871 1.12939453 83.94433594 C1.13114685 83.17094376 1.13289917 82.39755157 1.13470459 81.60072327 C1.13907997 79.06191719 1.1361992 76.5231817 1.1328125 73.984375 C1.13348705 72.20469143 1.13445834 70.42500796 1.13571167 68.64532471 C1.13718304 64.91995362 1.13505313 61.19460657 1.13037109 57.46923828 C1.1246908 52.72081448 1.12794559 47.97244742 1.13394356 43.22402573 C1.13757854 39.54862043 1.13639687 35.87322829 1.13381577 32.19782257 C1.13315374 30.44852949 1.13394929 28.69923517 1.13629532 26.94994354 C1.14574997 17.91508006 1.09650215 8.98490896 0 0 Z " fill="#EC4C0D" transform="translate(387,147)"/>
<path d="M0 0 C0.66 0 1.32 0 2 0 C3.82673532 3.91209156 4.25454543 7.01327034 4.27124023 11.31567383 C4.28142685 12.57080276 4.29161346 13.8259317 4.30210876 15.11909485 C4.30304976 15.78489374 4.30399075 16.45069263 4.30496025 17.13666725 C4.30864382 19.23556082 4.32542515 21.33399019 4.34571838 23.43278503 C4.40093172 29.397566 4.43173896 35.36241494 4.45629883 41.32739258 C4.47225613 44.98377088 4.50256029 48.63981962 4.54106331 52.29602623 C4.55264251 53.68213058 4.55864304 55.06829408 4.55874443 56.45444679 C4.55948875 63.92326045 4.60685833 70.25111654 8 77 C10.85837692 79.5493632 12.24177077 80 16.0625 80 C19.87571238 78.70188515 20.82070529 77.3816642 23 74 C23.86911293 71.09871216 24.32327312 68.18211861 24.75 65.1875 C24.87503906 64.39923828 25.00007813 63.61097656 25.12890625 62.79882812 C25.43315448 60.86802204 25.71849895 58.93425341 26 57 C26.33 57 26.66 57 27 57 C27.48185707 66.53006202 27.60022219 73.54788481 21.3125 81 C17.55906289 82.62310794 14.00610046 82.75965411 10 82 C5.92929417 78.99121743 3.98633525 75.59526846 2 71 C1.60800171 67.89588928 1.60800171 67.89588928 1.58349609 64.55493164 C1.56692963 63.29665054 1.55036316 62.03836945 1.53329468 60.74195862 C1.52984037 59.38135825 1.52655888 58.02075743 1.5234375 56.66015625 C1.50910805 55.25059025 1.49334757 53.84103815 1.47622681 52.4315033 C1.43448717 48.730385 1.4094239 45.02935277 1.38873291 41.32806396 C1.35285168 35.40861779 1.29155969 29.4893851 1.23024368 23.570158 C1.21130364 21.51243492 1.19946581 19.45476858 1.18881226 17.39698792 C1.17855011 16.13555466 1.16828796 14.8741214 1.15771484 13.57446289 C1.15121918 12.47115128 1.14472351 11.36783966 1.13803101 10.23109436 C0.99008965 6.76801381 0.5428984 3.42158497 0 0 Z " fill="#EC4308" transform="translate(336,92)"/>
<path d="M0 0 C0.33 0 0.66 0 1 0 C1.0698388 8.0414393 1.12298174 16.08274961 1.15543652 24.12441826 C1.17102157 27.8594225 1.19212684 31.59421763 1.22631836 35.32910156 C1.25917009 38.94067535 1.2769067 42.55204934 1.28463173 46.16376114 C1.29012936 47.5343248 1.30086348 48.90487885 1.31719017 50.27535629 C1.42709486 59.89268601 1.54249104 70.21198012 -5.5625 77.5625 C-6.16191406 78.20316406 -6.76132812 78.84382813 -7.37890625 79.50390625 C-11.07591691 82.91584621 -15.19528092 82.38993128 -20.00390625 82.34375 C-24.61054198 81.81521813 -26.10692809 80.59679211 -29 77 C-29.875 73.6875 -29.875 73.6875 -30 71 C-29.38125 71.86625 -29.38125 71.86625 -28.75 72.75 C-28.1725 73.4925 -27.595 74.235 -27 75 C-26.46375 75.721875 -25.9275 76.44375 -25.375 77.1875 C-21.82478829 79.89687209 -18.40023362 80.17600934 -14 80 C-9.79839342 78.73159047 -8.35094386 77.47767359 -5.75 73.9375 C-1.61607949 65.73128876 -1.68913332 56.40374956 -1.62109375 47.421875 C-1.60409927 46.25166809 -1.5871048 45.08146118 -1.56959534 43.87579346 C-1.51684559 40.1672493 -1.47633344 36.45871385 -1.4375 32.75 C-1.39344295 29.02705865 -1.34667814 25.30419917 -1.29469299 21.58135986 C-1.26295457 19.27311422 -1.23599839 16.96479648 -1.21446228 14.65643311 C-1.15033047 9.67229719 -1.0558989 4.89596649 0 0 Z " fill="#ED4B0E" transform="translate(298,96)"/>
<path d="M0 0 C0.66 0.99 1.32 1.98 2 3 C1.814375 3.70125 1.62875 4.4025 1.4375 5.125 C0.78484369 9.41388429 1.68414758 13.32226845 4 17 C9.43046176 20.77014585 13.33857653 21.57186713 19.86328125 21.50390625 C20.69530563 21.51332748 21.52733002 21.52274872 22.38456726 21.53245544 C25.02746513 21.56094826 27.66946162 21.564191 30.3125 21.5625 C57.11936999 21.59947499 57.11936999 21.59947499 66 29 C69.38433761 33.09682973 70.50604514 35.68652603 70 41 C69.62875 40.195625 69.62875 40.195625 69.25 39.375 C66.31210924 33.79300755 63.63915667 30.03646898 58 27 C52.59696842 25.41494507 47.86801005 24.74486834 42.203125 24.69140625 C40.73437121 24.66623595 39.2656213 24.64083808 37.796875 24.61523438 C35.52865718 24.58666186 33.2605068 24.56258748 30.9921875 24.54370117 C7.90388538 24.31492989 7.90388538 24.31492989 1.73925781 19.08032227 C-0.96794326 15.8422453 -1.13724711 13.13466436 -1.125 9.0625 C-1.12757812 8.20785156 -1.13015625 7.35320312 -1.1328125 6.47265625 C-1.00930254 4.17319148 -0.64420687 2.20359652 0 0 Z " fill="#E1470E" transform="translate(1,199)"/>
<path d="M0 0 C3.75255101 2.01267679 5.96064299 3.39213636 8.35546875 6.984375 C5.36596761 6.50605482 3.82459831 5.63400051 1.23046875 3.921875 C-3.2599922 1.28156105 -7.56778365 1.29060724 -12.64453125 1.984375 C-15.21273963 2.75093149 -17.23956175 3.73379086 -19.64453125 4.984375 C-20.40765625 5.273125 -21.17078125 5.561875 -21.95703125 5.859375 C-24.35588954 7.45861386 -24.77136663 9.29771464 -25.64453125 11.984375 C-25.97453125 12.644375 -26.30453125 13.304375 -26.64453125 13.984375 C-26.76293238 15.55644143 -26.82156158 17.13320769 -26.84985352 18.70947266 C-26.86979874 19.69033844 -26.88974396 20.67120422 -26.91029358 21.68179321 C-26.92700607 22.74328583 -26.94371857 23.80477844 -26.9609375 24.8984375 C-26.9817186 25.98321381 -27.00249969 27.06799011 -27.02391052 28.18563843 C-27.08943759 31.66015121 -27.14830572 35.13474124 -27.20703125 38.609375 C-27.25021346 40.96094558 -27.29382765 43.31250826 -27.33789062 45.6640625 C-27.44512218 51.4374177 -27.54688269 57.2108502 -27.64453125 62.984375 C-27.97453125 62.984375 -28.30453125 62.984375 -28.64453125 62.984375 C-28.74609303 55.83117828 -28.81606491 48.67816805 -28.86425781 41.52441406 C-28.88435196 39.09172619 -28.91163213 36.65908649 -28.94628906 34.2265625 C-28.99490185 30.72644145 -29.01752264 27.22695998 -29.03515625 23.7265625 C-29.05580139 22.64196747 -29.07644653 21.55737244 -29.09771729 20.43991089 C-29.09987466 13.15207461 -28.16049904 9.68917993 -23.1171875 4.375 C-16.29590251 -1.14249367 -8.44206921 -3.24215361 0 0 Z " fill="#FE590C" transform="translate(170.64453125,82.015625)"/>
<path d="M0 0 C2.31581413 1.70152541 3.5074286 3.62022998 4.6640625 6.22265625 C4.0040625 6.55265625 3.3440625 6.88265625 2.6640625 7.22265625 C1.9009375 6.43890625 1.1378125 5.65515625 0.3515625 4.84765625 C-3.39942127 1.18390466 -5.47374125 -0.08077119 -10.6484375 -0.15234375 C-15.67184355 -0.0594406 -18.50922434 0.77861441 -22.3359375 4.22265625 C-26.058478 8.33028715 -26.44193763 12.13201471 -26.58203125 17.5390625 C-26.61490234 18.55033203 -26.64777344 19.56160156 -26.68164062 20.60351562 C-26.74294801 22.72840356 -26.80022555 24.85341151 -26.85351562 26.97851562 C-26.88767578 27.98849609 -26.92183594 28.99847656 -26.95703125 30.0390625 C-26.9820874 30.96146729 -27.00714355 31.88387207 -27.03295898 32.83422852 C-27.3359375 35.22265625 -27.3359375 35.22265625 -29.3359375 38.22265625 C-29.9959375 38.22265625 -30.6559375 38.22265625 -31.3359375 38.22265625 C-31.1915625 37.4234375 -31.0471875 36.62421875 -30.8984375 35.80078125 C-29.9386186 30.12185277 -29.22752364 24.73914133 -29.3984375 18.97265625 C-29.48509043 13.00935911 -28.98583709 7.32943508 -24.9765625 2.62890625 C-17.5164318 -3.98523025 -8.62579849 -4.79401948 0 0 Z " fill="#EB4910" transform="translate(100.3359375,143.77734375)"/>
<path d="M0 0 C0.66 0 1.32 0 2 0 C1 3 1 3 -1.5 4.625 C-11.04878274 8.3763075 -22.55196013 7.29654005 -32.71630859 7.47680664 C-47.29219093 7.12604554 -47.29219093 7.12604554 -60 13 C-60.66 13 -61.32 13 -62 13 C-60.99796471 9.77121964 -60.04973357 9.02667239 -57.02099609 7.40234375 C-52.48231424 5.5689374 -48.07130972 5.4792396 -43.2265625 5.375 C-41.84179214 5.32545166 -41.84179214 5.32545166 -40.42904663 5.27490234 C-37.49462174 5.1702907 -34.56011051 5.08300543 -31.625 5 C-27.76232502 4.89036632 -23.90082061 4.76289141 -20.0390625 4.625 C-19.16690094 4.60614746 -18.29473938 4.58729492 -17.39614868 4.56787109 C-11.99867606 4.37370666 -4.06584803 4.06584803 0 0 Z " fill="#D54010" transform="translate(64,186)"/>
<path d="M0 0 C0.66 0.33 1.32 0.66 2 1 C0.33884286 7.97685997 -2.16767878 12.68712118 -8 17 C-13.29129347 20.0282148 -18.98611877 20.94624005 -25 20 C-30.36850289 18.20406198 -34.32963361 15.33770574 -38 11 C-38.33 10.01 -38.66 9.02 -39 8 C-36.19365913 9.14332406 -34.74986841 10.26329641 -32.625 12.5 C-27.97175877 16.93165831 -23.34984861 17.27218364 -17.19140625 17.13671875 C-14.41477909 16.96348889 -11.72406067 16.55878168 -9 16 C-9 15.34 -9 14.68 -9 14 C-7.3545622 12.31237149 -5.68711423 10.6459651 -4 9 C-3.67 8.34 -3.34 7.68 -3 7 C-2.34 7 -1.68 7 -1 7 C-0.67 4.69 -0.34 2.38 0 0 Z " fill="#E5460D" transform="translate(181,297)"/>
<path d="M0 0 C0.33 0 0.66 0 1 0 C1.0093457 0.98282959 1.01869141 1.96565918 1.02832031 2.97827148 C1.06852615 6.66328428 1.13436512 10.34748874 1.20751953 14.03198242 C1.23555341 15.61944101 1.25685448 17.20703462 1.27099609 18.79467773 C1.21569412 32.96172599 1.21569412 32.96172599 7.859375 45.05078125 C10.76193483 46.33786526 13.08908918 46.29057318 16.25 46.1875 C17.32765625 46.16042969 18.4053125 46.13335937 19.515625 46.10546875 C20.74539063 46.05326172 20.74539063 46.05326172 22 46 C21.67 46.99 21.34 47.98 21 49 C11.29005236 49.62198953 11.29005236 49.62198953 6.5 47.3125 C2.85931925 43.9448703 1.00337208 40.81819492 0 36 C-0.08348775 33.23574767 -0.11625686 30.49786288 -0.09765625 27.734375 C-0.0962413 26.94097717 -0.09482635 26.14757935 -0.09336853 25.33013916 C-0.08778415 22.80338728 -0.07523454 20.27672496 -0.0625 17.75 C-0.05748298 16.03385545 -0.05292043 14.31770951 -0.04882812 12.6015625 C-0.03781984 8.40100731 -0.02056596 4.20051883 0 0 Z " fill="#E23F09" transform="translate(295,251)"/>
<path d="M0 0 C2.99115009 1.70749863 5.45393267 3.53616584 7.625 6.25 C7.625 6.91 7.625 7.57 7.625 8.25 C4.85098504 6.94529846 2.52162915 5.44146257 0.0625 3.625 C-4.94192019 0.49374267 -9.62538233 0.2122233 -15.375 1.25 C-21.20750226 3.54794747 -24.20730226 7.01111528 -27.375 12.25 C-28.035 12.25 -28.695 12.25 -29.375 12.25 C-27.53323128 6.3898268 -23.930876 2.94582077 -18.6875 -0.0625 C-12.48211338 -2.92562565 -6.18393242 -2.89656314 0 0 Z " fill="#E2440D" transform="translate(328.375,82.75)"/>
<path d="M0 0 C0.66 0 1.32 0 2 0 C2.598125 0.9075 3.19625 1.815 3.8125 2.75 C6.61091015 6.90763793 9.22620944 9.40873648 14 11 C14 11.66 14 12.32 14 13 C15.12019531 12.90460938 16.24039063 12.80921875 17.39453125 12.7109375 C18.8671435 12.59838115 20.33980237 12.4864337 21.8125 12.375 C22.55048828 12.31054688 23.28847656 12.24609375 24.04882812 12.1796875 C29.66015625 11.7734375 29.66015625 11.7734375 33 14 C24.81501998 16.67264654 17.88898192 16.735419 10 13 C5.64850058 10.07659885 2.2641868 6.79474851 0 2 C0 1.34 0 0.68 0 0 Z " fill="#DF480F" transform="translate(219,374)"/>
<path d="M0 0 C3.45985979 1.1532866 4.45922632 2.74183198 6.69140625 5.50390625 C10.66850739 10.05086069 15.2892127 10.51204428 21 11 C25.49812163 11.25007351 29.9975836 11.41159483 34.5 11.5625 C35.70398438 11.60568359 36.90796875 11.64886719 38.1484375 11.69335938 C41.09886193 11.79873168 44.04936071 11.90085903 47 12 C47 12.33 47 12.66 47 13 C43.06343684 13.22934956 39.12587902 13.4295249 35.1875 13.625 C34.08728516 13.68945312 32.98707031 13.75390625 31.85351562 13.8203125 C21.76467944 14.29648176 12.76001006 14.19136407 4.65625 7.6328125 C2.86567262 5.86757348 1.39096766 4.094933 0 2 C0 1.34 0 0.68 0 0 Z " fill="#DB400C" transform="translate(74,270)"/>
<path d="M0 0 C2 3 2 3 3.25 5.5 C5.49780191 8.71114558 7.3317295 9.65967039 11 11 C16.79141131 11.7507385 21.3653326 10.48856744 26 7 C27.7372659 4.72744209 28.78979299 2.6221152 30 0 C30.66 0 31.32 0 32 0 C31.84825965 5.00743139 29.09792829 7.27547597 25.69140625 10.546875 C21.70091105 13.97519882 17.32582808 13.32587749 12.27734375 13.28125 C7.67816713 12.886565 5.58656075 11.88484234 2 9 C0 6.5 0 6.5 -1 4 C-0.6875 1.6875 -0.6875 1.6875 0 0 Z " fill="#EF4C0D" transform="translate(109,251)"/>
<path d="M0 0 C-3 1 -3 1 -5.19921875 0.1015625 C-8.71547704 -1.28140101 -12.08363927 -1.45372219 -15.8125 -1.625 C-16.50537109 -1.66367187 -17.19824219 -1.70234375 -17.91210938 -1.7421875 C-19.60767015 -1.83573568 -21.30379712 -1.91892364 -23 -2 C-23 -1.34 -23 -0.68 -23 0 C-24.86328125 1.5078125 -24.86328125 1.5078125 -27.3125 3.125 C-28.11300781 3.66382813 -28.91351563 4.20265625 -29.73828125 4.7578125 C-32 6 -32 6 -35 6 C-25.28651934 -4.77635392 -12.95361788 -8.12776024 0 0 Z " fill="#EC5818" transform="translate(256,4)"/>
<path d="M0 0 C0.33 0 0.66 0 1 0 C1.04898437 1.23234375 1.09796875 2.4646875 1.1484375 3.734375 C1.51690136 12.14777487 1.96474619 20.36860295 3.59765625 28.65234375 C4 31 4 31 4 35 C3.34 35 2.68 35 2 35 C-0.33290657 27.65226277 -0.23017519 20.66160781 -0.125 13 C-0.11146484 11.12248047 -0.11146484 11.12248047 -0.09765625 9.20703125 C-0.07422716 6.1378199 -0.04142147 3.06901244 0 0 Z " fill="#FE5308" transform="translate(264,132)"/>
<path d="M0 0 C2.93447681 -0.34934248 5.14367502 -0.51495218 7.734375 1.04296875 C9.375 2.375 9.375 2.375 12 5 C12 5.66 12 6.32 12 7 C12.66 7 13.32 7 14 7 C15.65 11.29 17.3 15.58 19 20 C18.34 20.66 17.68 21.32 17 22 C16.66226563 21.10796875 16.32453125 20.2159375 15.9765625 19.296875 C15.53054687 18.12640625 15.08453125 16.9559375 14.625 15.75 C14.18414062 14.58984375 13.74328125 13.4296875 13.2890625 12.234375 C11.57391594 7.10306564 11.57391594 7.10306564 7.6875 3.875 C6.800625 3.58625 5.91375 3.2975 5 3 C3.33333333 2.33333333 1.66666667 1.66666667 0 1 C0 0.67 0 0.34 0 0 Z " fill="#E24A10" transform="translate(124,283)"/>
<path d="M0 0 C0.33 0 0.66 0 1 0 C0.70019399 7.58509213 -0.37826779 12.25338047 -5.8125 17.875 C-8.9101058 19.46805441 -11.57652826 19.19750798 -15 19 C-14.443125 18.731875 -13.88625 18.46375 -13.3125 18.1875 C-12.549375 17.795625 -11.78625 17.40375 -11 17 C-10.154375 16.5875 -9.30875 16.175 -8.4375 15.75 C-5.41374412 13.57909834 -4.43049051 11.38800384 -3 8 C-2.67 8 -2.34 8 -2 8 C-1.855625 6.865625 -1.71125 5.73125 -1.5625 4.5625 C-1 1 -1 1 0 0 Z " fill="#DC4A10" transform="translate(389,238)"/>
<path d="M0 0 C4.74801299 1.81809039 8.16189794 3.74284691 11 8 C8.07920919 7.53267347 6.60916468 6.72811456 4.125 5 C-1.28732914 1.71691683 -7.84938154 2.17061355 -14 2 C-9.50126232 -0.99915845 -5.27230292 -0.70203767 0 0 Z " fill="#DE400C" transform="translate(168,81)"/>
<path d="M0 0 C-1 3 -1 3 -3.5 4.625 C-10.72550947 7.46359301 -18.33076368 7.14409839 -26 7 C-26 6.67 -26 6.34 -26 6 C-24.15535156 5.72736328 -24.15535156 5.72736328 -22.2734375 5.44921875 C-20.64054328 5.19583861 -19.00773519 4.94190292 -17.375 4.6875 C-16.16263672 4.51057617 -16.16263672 4.51057617 -14.92578125 4.33007812 C-9.90889485 3.53471809 -4.69259802 0 0 0 Z " fill="#EE470E" transform="translate(66,186)"/>
<path d="M0 0 C-0.8353125 0.37125 -0.8353125 0.37125 -1.6875 0.75 C-4.15464798 1.99199765 -4.15464798 1.99199765 -6.625 4.125 C-9 6 -9 6 -11 6 C-11.433125 7.0828125 -11.433125 7.0828125 -11.875 8.1875 C-12.91666667 10.79166667 -13.95833333 13.39583333 -15 16 C-15.33 16 -15.66 16 -16 16 C-15.87210139 9.86086689 -13.81786473 7.06399567 -9.69140625 2.6015625 C-6.56350426 -0.36019227 -4.18652557 -0.09101143 0 0 Z " fill="#F3490D" transform="translate(158,83)"/>
<path d="M0 0 C0.78246094 -0.01417969 1.56492187 -0.02835938 2.37109375 -0.04296875 C4.5625 0.1875 4.5625 0.1875 7.5625 2.1875 C4.61322474 3.17059175 3.25525376 3.16587852 0.25 2.9375 C-3.39139382 2.86610012 -5.20961842 3.32231942 -8 5.6875 C-9.2065625 6.925 -9.2065625 6.925 -10.4375 8.1875 C-10.4375 5.1875 -10.4375 5.1875 -8.5625 3.0625 C-5.56727176 0.41965155 -3.91073491 0.03210784 0 0 Z " fill="#E4420C" transform="translate(374.4375,138.8125)"/>
<path d="M0 0 C0.66 0 1.32 0 2 0 C3.09911549 3.29734646 3.1139456 5.72958745 3.09765625 9.19921875 C3.09443359 10.40771484 3.09121094 11.61621094 3.08789062 12.86132812 C3.07951172 14.12396484 3.07113281 15.38660156 3.0625 16.6875 C3.05798828 17.96173828 3.05347656 19.23597656 3.04882812 20.54882812 C3.03702873 23.69926564 3.02056597 26.84960949 3 30 C2.67 30 2.34 30 2 30 C1.97494385 29.33991943 1.9498877 28.67983887 1.92407227 27.99975586 C1.80728248 24.97884631 1.68493554 21.95818578 1.5625 18.9375 C1.52318359 17.89916016 1.48386719 16.86082031 1.44335938 15.79101562 C1.22333656 10.45969359 0.8883816 5.26310107 0 0 Z " fill="#F64F09" transform="translate(105,152)"/>
<path d="M0 0 C2.70871555 1.40853209 4.65192226 3.00163596 7 5 C6.34 5.66 5.68 6.32 5 7 C4.319375 6.01 4.319375 6.01 3.625 5 C-0.31051095 2.00151547 -4.20750631 2.51194972 -9 3 C-9.99 3.33 -10.98 3.66 -12 4 C-11.67 3.01 -11.34 2.02 -11 1 C-7.50855362 -0.74572319 -3.80861525 -0.5830779 0 0 Z " fill="#EA490E" transform="translate(345,228)"/>
<path d="M0 0 C0.5775 0.226875 1.155 0.45375 1.75 0.6875 C0.8425 1.0175 -0.065 1.3475 -1 1.6875 C-5.28695973 4.32562906 -6.34964216 7.18710712 -8.25 11.6875 C-8.90830885 13.0249796 -9.57265994 14.35955698 -10.25 15.6875 C-10.70760607 9.9674241 -9.88848132 7.13453273 -6.25 2.6875 C-3.03996865 -0.42221787 -3.03996865 -0.42221787 0 0 Z " fill="#D94A10" transform="translate(276.25,227.3125)"/>
<path d="M0 0 C0.68449219 0.14308594 1.36898438 0.28617188 2.07421875 0.43359375 C5.31053736 1.06011738 8.55335919 1.56869079 11.8125 2.0625 C13.55466797 2.32740234 13.55466797 2.32740234 15.33203125 2.59765625 C16.21246094 2.73042969 17.09289062 2.86320312 18 3 C18 3.33 18 3.66 18 4 C11.64025194 5.19695939 7.71886375 5.15121064 2 2 C1.34 1.34 0.68 0.68 0 0 Z " fill="#D8400B" transform="translate(360,254)"/>
<path d="M0 0 C0.66 0.99 1.32 1.98 2 3 C1.7834375 4.0209375 1.7834375 4.0209375 1.5625 5.0625 C0.7241412 9.44059597 1.44543836 13.60616546 2 18 C-0 17 -0 17 -1 14 C-1.09329934 12.35628509 -1.12995144 10.70885323 -1.125 9.0625 C-1.12757812 8.20785156 -1.13015625 7.35320312 -1.1328125 6.47265625 C-1.00930254 4.17319148 -0.64420687 2.20359652 0 0 Z " fill="#DF591F" transform="translate(1,199)"/>
<path d="M0 0 C-0.99 0 -1.98 0 -3 0 C-3 0.66 -3 1.32 -3 2 C-4.86328125 3.5078125 -4.86328125 3.5078125 -7.3125 5.125 C-8.11300781 5.66382813 -8.91351563 6.20265625 -9.73828125 6.7578125 C-12 8 -12 8 -15 8 C-13.92319498 6.86874978 -12.83824365 5.74525081 -11.75 4.625 C-11.14671875 3.99851562 -10.5434375 3.37203125 -9.921875 2.7265625 C-6.57159869 -0.28323857 -4.35730629 -1.55618082 0 0 Z " fill="#DD4611" transform="translate(236,2)"/>
<path d="M0 0 C0.66 0.66 1.32 1.32 2 2 C-2.36162362 11.12177122 -2.36162362 11.12177122 -5 14 C-5.66 14 -6.32 14 -7 14 C-5.99308773 11.83126588 -4.99855869 9.99819836 -3.5 8.125 C-1.68327951 5.55131264 -0.8881823 3.00615548 0 0 Z " fill="#E85012" transform="translate(263,370)"/>
<path d="M0 0 C2.0625 0.4375 2.0625 0.4375 4 1 C3.0925 1.53625 2.185 2.0725 1.25 2.625 C-2.12143757 4.83551803 -3.84224544 7.60924284 -6 11 C-6.66 11 -7.32 11 -8 11 C-6.60366572 6.55711819 -4.39598172 4.13475236 -1 1 C-0.67 0.67 -0.34 0.34 0 0 Z " fill="#EC4A11" transform="translate(307,84)"/>
<path d="M0 0 C0.474375 0.7425 0.94875 1.485 1.4375 2.25 C4.80323681 5.86201023 8.45013665 7.25977449 13 9 C9.67475827 10.07667519 8.941828 9.98094365 5.375 8.8125 C2 7 2 7 0.5625 5 C0 3 0 3 0 0 Z " fill="#E64510" transform="translate(2,212)"/>
<path d="M0 0 C0.2475 0.53625 0.495 1.0725 0.75 1.625 C2.98609906 5.87358821 4.96811275 9.31207517 9 12 C6.75 12.3125 6.75 12.3125 4 12 C0.73472194 9.08772497 0.03859941 7.58864097 -0.25 3.1875 C-0.1675 2.135625 -0.085 1.08375 0 0 Z " fill="#E1470D" transform="translate(340,161)"/>
<path d="M0 0 C4.43458973 1.3937282 6.87378374 3.60582235 10 7 C9.34 7.66 8.68 8.32 8 9 C7.236875 8.21625 6.47375 7.4325 5.6875 6.625 C3.09108195 3.92742283 3.09108195 3.92742283 0 2 C0 1.34 0 0.68 0 0 Z " fill="#E54D13" transform="translate(95,142)"/>
<path d="M0 0 C3.2626876 3.08632611 6.02235218 5.93483504 8 10 C7.67 10.66 7.34 11.32 7 12 C5 11 5 11 4.0625 8.625 C3.19003509 5.97870437 3.19003509 5.97870437 1.375 4.375 C0.92125 3.92125 0.4675 3.4675 0 3 C0 2.01 0 1.02 0 0 Z " fill="#D95519" transform="translate(257,5)"/>
<path d="M0 0 C0.66 0.33 1.32 0.66 2 1 C1.525625 1.886875 1.05125 2.77375 0.5625 3.6875 C-0.79737149 6.57042756 -1.54060386 8.87610623 -2 12 C-3.125 10.375 -3.125 10.375 -4 8 C-3.16933916 4.53891316 -2.52986895 2.52986895 0 0 Z " fill="#D64A13" transform="translate(330,233)"/>
<path d="M0 0 C0.66 0 1.32 0 2 0 C3.26237731 2.52475462 3.09856404 4.31200466 3.0625 7.125 C3.05347656 8.03507812 3.04445313 8.94515625 3.03515625 9.8828125 C3.02355469 10.58148438 3.01195312 11.28015625 3 12 C2.67 12 2.34 12 2 12 C1.34 8.04 0.68 4.08 0 0 Z " fill="#ED4F0C" transform="translate(336,92)"/>
<path d="M0 0 C0.33 0 0.66 0 1 0 C1.33 4.29 1.66 8.58 2 13 C1.34 13 0.68 13 0 13 C-1.29676812 8.38926889 -0.71109139 4.66159911 0 0 Z " fill="#D34E13" transform="translate(266,154)"/>
<path d="M0 0 C4.67461851 -0.32613618 7.16674383 0.29417212 11 3 C7.59068103 4.13643966 6.99664544 3.86747764 3.8125 2.5625 C3.09707031 2.27503906 2.38164062 1.98757812 1.64453125 1.69140625 C1.10183594 1.46324219 0.55914062 1.23507813 0 1 C0 0.67 0 0.34 0 0 Z " fill="#D64C14" transform="translate(245,1)"/>
<path d="M0 0 C-1.22934015 3.68802044 -2.93859378 4.72356973 -6 7 C-6 4 -6 4 -4.125 1.8125 C-2 0 -2 0 0 0 Z " fill="#E74A14" transform="translate(370,140)"/>
</svg>
